<svg width="20" height="16" viewBox="0 0 20 16" fill="none" xmlns="http://www.w3.org/2000/svg">
<path d="M3.82222 16C2.77111 16 1.8713 15.6083 1.12278 14.825C0.374259 14.0417 0 13.1 0 12V4C0 2.9 0.374259 1.95833 1.12278 1.175C1.8713 0.391667 2.77111 0 3.82222 0H15.2889C16.34 0 17.2398 0.391667 17.9883 1.175C18.7369 1.95833 19.1111 2.9 19.1111 4V12C19.1111 13.1 18.7369 14.0417 17.9883 14.825C17.2398 15.6083 16.34 16 15.2889 16H3.82222ZM3.82222 4H15.2889C15.6393 4 15.9737 4.04167 16.2922 4.125C16.6107 4.20833 16.9133 4.34167 17.2 4.525V4C17.2 3.45 17.0129 2.97917 16.6386 2.5875C16.2644 2.19583 15.8144 2 15.2889 2H3.82222C3.29667 2 2.84676 2.19583 2.4725 2.5875C2.09824 2.97917 1.91111 3.45 1.91111 4V4.525C2.19778 4.34167 2.50037 4.20833 2.81889 4.125C3.13741 4.04167 3.47185 4 3.82222 4ZM2.05444 7.25L12.685 9.95C12.8283 9.98333 12.9717 9.98333 13.115 9.95C13.2583 9.91667 13.3937 9.85 13.5211 9.75L16.8417 6.85C16.6665 6.6 16.4435 6.39583 16.1728 6.2375C15.902 6.07917 15.6074 6 15.2889 6H3.82222C3.40815 6 3.04583 6.1125 2.73528 6.3375C2.42472 6.5625 2.19778 6.86667 2.05444 7.25Z" fill="#E8EAED"/>
</svg>
