<svg width="116" height="80" viewBox="0 0 116 80" fill="none" xmlns="http://www.w3.org/2000/svg">
<path opacity="0.5" d="M98.2633 6.69833C90.6394 3.52555 82.5922 1.27401 74.3264 0.0010308C73.2043 1.83028 72.1768 3.74406 71.2696 5.67227C66.873 5.0687 62.4329 4.76494 57.9865 4.76352C53.5472 4.76352 49.0862 5.07049 44.7015 5.66444C43.8061 3.74097 42.766 1.83379 41.6372 0C33.3824 1.28066 25.3145 3.54512 17.695 6.71152C2.5454 27.1048 -1.56015 46.9885 0.492515 66.5897C9.36354 72.5519 19.292 77.0864 29.8467 79.9963C32.2136 77.0888 34.334 73.9937 36.1343 70.7727C32.6996 69.6081 29.3852 68.1689 26.2298 66.4718C27.0602 65.9238 27.8722 65.3594 28.6568 64.8112C37.8317 68.7321 47.8568 70.7775 57.9998 70.7775C68.1431 70.7775 78.1682 68.7321 87.3436 64.8106C88.1375 65.4002 88.9495 65.9647 89.7705 66.4712C86.6088 68.1714 83.2885 69.6145 79.848 70.7836C81.6544 74.0116 83.7578 77.0947 86.1356 80C96.6999 77.0993 106.636 72.565 115.509 66.5957L115.507 66.598C117.916 43.8668 111.392 24.1658 98.2633 6.69833ZM38.7304 54.5352C33.01 54.5352 28.2836 49.8112 28.2836 43.9996C28.2836 38.1882 32.8455 33.4228 38.7121 33.4228C44.5789 33.4228 49.2681 38.1882 49.168 43.9996C49.0676 49.8112 44.5606 54.5352 38.7304 54.5352ZM77.2692 54.5352C71.5395 54.5352 66.8317 49.8112 66.8317 43.9996C66.8317 38.1882 71.3936 33.4228 77.2692 33.4228C83.1449 33.4228 87.7981 38.1882 87.6977 43.9996C87.5973 49.8112 83.0994 54.5352 77.2692 54.5352Z" fill="#E8EAED"/>
</svg>
