<svg width="91" height="93" viewBox="0 0 91 93" fill="none" xmlns="http://www.w3.org/2000/svg">
<path fill-rule="evenodd" clip-rule="evenodd" d="M6.25433 40.0371C30.6826 26.9109 46.9702 18.261 55.1206 14.0793C78.3934 2.14379 83.228 0.0691024 86.3801 0.000484322C87.074 -0.0116248 88.6223 0.198264 89.6271 1.20332C90.4749 2.05095 90.7073 3.19728 90.8186 4.00052C90.9299 4.80779 91.0706 6.63626 90.9594 8.06917C89.6992 24.4084 84.2427 64.0575 81.4669 82.3584C80.2919 90.1042 77.9777 92.6995 75.7388 92.9538C70.8747 93.5068 67.1792 88.9861 62.4658 85.1758C55.0911 79.2181 50.9243 75.5046 43.7657 69.6882C35.4909 62.9637 40.8558 59.2704 45.5693 53.232C46.8033 51.6497 68.243 27.6011 68.6587 25.4215C68.7111 25.147 68.7602 24.1298 68.2692 23.593C67.7782 23.0562 67.0549 23.2418 66.5344 23.3872C65.7947 23.593 54.0142 33.1955 31.1899 52.1947C27.8446 55.0282 24.8136 56.4046 22.1001 56.336C19.1084 56.2552 13.354 54.2492 9.07586 52.5337C3.82885 50.4308 -0.341263 49.3167 0.0220668 45.7446C0.208642 43.8838 2.28715 41.9827 6.25433 40.0371Z" fill="#E8EAED"/>
</svg>
